<svg width="102" height="63" viewBox="0 0 102 63" fill="none" xmlns="http://www.w3.org/2000/svg">
<path d="M66.3422 16.5506V15.521H67.9917V10.3473H66.3422V6.89822C66.3422 3.09385 63.3828 0 59.7438 0H43.2479C39.6089 0 36.6496 3.09385 36.6496 6.89822V10.3473H35V15.521H36.6496V16.5506C35.5823 17.8094 34.9957 19.435 35.0016 21.1172L35.0082 27.5981C35.0099 28.8622 35.6747 29.959 36.6496 30.5574V32.7666C36.6496 33.2239 36.8234 33.6626 37.1327 33.986C37.4421 34.3094 37.8617 34.4911 38.2992 34.4911H39.9488C40.3863 34.4911 40.8058 34.3094 41.1152 33.986C41.4246 33.6626 41.5983 33.2239 41.5983 32.7666V31.042H61.3934V32.7666C61.3934 33.2239 61.5672 33.6626 61.8766 33.986C62.1859 34.3094 62.6055 34.4911 63.043 34.4911H64.6926C65.1301 34.4911 65.5497 34.3094 65.859 33.986C66.1684 33.6626 66.3422 33.2239 66.3422 32.7666V30.5695C66.5951 30.4219 66.8286 30.2404 67.0366 30.0297C67.6585 29.3778 68.0016 28.5104 68 27.5894L67.9934 21.1068C67.9968 19.4276 67.409 17.8058 66.3422 16.5506ZM44.8975 3.44911H58.0942V6.89822H44.8975V3.44911ZM42.4231 25.8683C41.7667 25.8681 41.1372 25.5953 40.6732 25.1098C40.2091 24.6244 39.9485 23.9661 39.9488 23.2798C39.949 22.5935 40.21 21.9354 40.6743 21.4503C41.1387 20.9651 41.7683 20.6927 42.4248 20.6929C43.0813 20.6932 43.7107 20.966 44.1748 21.4515C44.6388 21.9369 44.8994 22.5952 44.8992 23.2815C44.899 23.9678 44.638 24.6259 44.1736 25.111C43.7093 25.5962 43.0796 25.8686 42.4231 25.8683ZM49.8463 17.2456H39.9488V10.3473H49.8463V17.2456ZM60.5686 25.8683C59.9121 25.8681 59.2826 25.5953 58.8186 25.1098C58.3546 24.6244 58.094 23.9661 58.0942 23.2798C58.0944 22.5935 58.3554 21.9354 58.8198 21.4503C59.2841 20.9651 59.9138 20.6927 60.5703 20.6929C61.2267 20.6932 61.8562 20.966 62.3202 21.4515C62.7843 21.9369 63.0449 22.5952 63.0446 23.2815C63.0444 23.9678 62.7834 24.6259 62.3191 25.111C61.8547 25.5962 61.2251 25.8686 60.5686 25.8683ZM63.043 17.2456H53.1455V10.3473H63.043V17.2456Z" fill="white"/>
<path d="M11.686 61.7212C8.74567 62.0293 6.04406 62.1833 3.5812 62.1833C2.34977 62.1833 1.44505 61.8999 0.867028 61.333C0.289009 60.7661 0 59.8788 0 58.6711V52.7556C0 51.4616 0.295292 50.525 0.885876 49.9458C1.48903 49.3543 2.4503 49.0585 3.76969 49.0585H10.5551V51.6465H4.52362C3.76969 51.6465 3.39272 52.0162 3.39272 52.7556V58.6711C3.39272 58.9545 3.47439 59.1825 3.63775 59.355C3.81367 59.5152 4.04613 59.5953 4.33514 59.5953C5.78018 59.5953 7.09957 59.5645 8.29331 59.5029V56.8225H5.84301V54.6042H11.686V61.7212Z" fill="white"/>
<path d="M23.5642 59.2256C23.5642 60.1499 23.2941 60.877 22.7537 61.4069C22.226 61.9245 21.4909 62.1833 20.5485 62.1833H16.2133C15.2709 62.1833 14.5295 61.9245 13.9892 61.4069C13.4615 60.877 13.1976 60.1499 13.1976 59.2256V54.9739C13.1976 54.0496 13.4615 53.3287 13.9892 52.8111C14.5295 52.2812 15.2709 52.0162 16.2133 52.0162H20.5485C21.4909 52.0162 22.226 52.2812 22.7537 52.8111C23.2941 53.3287 23.5642 54.0496 23.5642 54.9739V59.2256ZM20.2657 55.2512C20.2657 54.7583 20.0144 54.5118 19.5118 54.5118H17.25C16.7474 54.5118 16.4961 54.7583 16.4961 55.2512V58.9483C16.4961 59.4413 16.7474 59.6878 17.25 59.6878H19.5118C20.0144 59.6878 20.2657 59.4413 20.2657 58.9483V55.2512Z" fill="white"/>
<path d="M42.4068 61.7212C39.4664 62.0293 36.7648 62.1833 34.3019 62.1833C33.0705 62.1833 32.1658 61.8999 31.5878 61.333C31.0097 60.7661 30.7207 59.8788 30.7207 58.6711V52.7556C30.7207 51.4616 31.016 50.525 31.6066 49.9458C32.2098 49.3543 33.171 49.0585 34.4904 49.0585H41.2758V51.6465H35.2444C34.4904 51.6465 34.1134 52.0162 34.1134 52.7556V58.6711C34.1134 58.9545 34.1951 59.1825 34.3585 59.355C34.5344 59.5152 34.7669 59.5953 35.0559 59.5953C36.5009 59.5953 37.8203 59.5645 39.014 59.5029V56.8225H36.5637V54.6042H42.4068V61.7212Z" fill="white"/>
<path d="M54.2849 59.2256C54.2849 60.1499 54.0148 60.877 53.4745 61.4069C52.9467 61.9245 52.2116 62.1833 51.2692 62.1833H46.9341C45.9916 62.1833 45.2503 61.9245 44.7099 61.4069C44.1822 60.877 43.9183 60.1499 43.9183 59.2256V54.9739C43.9183 54.0496 44.1822 53.3287 44.7099 52.8111C45.2503 52.2812 45.9916 52.0162 46.9341 52.0162H51.2692C52.2116 52.0162 52.9467 52.2812 53.4745 52.8111C54.0148 53.3287 54.2849 54.0496 54.2849 54.9739V59.2256ZM50.9865 55.2512C50.9865 54.7583 50.7352 54.5118 50.2325 54.5118H47.9707C47.4681 54.5118 47.2168 54.7583 47.2168 55.2512V58.9483C47.2168 59.4413 47.4681 59.6878 47.9707 59.6878H50.2325C50.7352 59.6878 50.9865 59.4413 50.9865 58.9483V55.2512Z" fill="white"/>
<path d="M61.8184 49.0585H69.3578C70.5892 49.0585 71.4939 49.3358 72.072 49.8904C72.65 50.4326 72.939 51.2645 72.939 52.3859C72.939 53.1253 72.7756 53.7292 72.4489 54.1975C72.1222 54.6535 71.7201 54.9739 71.2426 55.1588C72.2605 55.4299 72.9516 56.0954 73.316 57.1552C73.4416 57.5373 73.5044 57.9809 73.5044 58.4862C73.5044 59.6939 73.2154 60.5812 72.6374 61.1481C72.0594 61.715 71.1547 61.9985 69.9232 61.9985H61.8184V49.0585ZM70.1117 57.9316C70.1117 57.1922 69.7348 56.8225 68.9808 56.8225H65.2111V59.4105H68.9808C69.7348 59.4105 70.1117 59.0408 70.1117 58.3013V57.9316ZM69.5463 52.7556C69.5463 52.0162 69.1693 51.6465 68.4154 51.6465H65.2111V54.2345H68.4154C69.1693 54.2345 69.5463 53.8648 69.5463 53.1253V52.7556Z" fill="white"/>
<path d="M79.6294 59.5029C80.2954 59.5029 81.0494 59.3797 81.8913 59.1332V52.2011H85.1897V61.9985H82.2682L82.0798 61.0742C81.4892 61.4562 80.8797 61.7397 80.2514 61.9245C79.6357 62.0971 79.1143 62.1833 78.687 62.1833H77.8388C76.9844 62.1833 76.2996 61.9307 75.7844 61.4254C75.2692 60.9201 75.0116 60.2485 75.0116 59.4105V52.2011H78.3101V58.8559C78.3101 59.0408 78.3729 59.1948 78.4986 59.318C78.6242 59.4413 78.7813 59.5029 78.9698 59.5029H79.6294Z" fill="white"/>
<path d="M86.691 59.4105C89.2418 59.5953 91.2523 59.6878 92.7225 59.6878C92.911 59.6878 93.068 59.6261 93.1937 59.5029C93.3193 59.3797 93.3822 59.2256 93.3822 59.0408V58.3938H89.3298C88.4753 58.3938 87.7905 58.1411 87.2753 57.6359C86.7601 57.1306 86.5025 56.4589 86.5025 55.6209V54.9739C86.5025 54.1359 86.7601 53.4643 87.2753 52.959C87.7905 52.4537 88.4753 52.2011 89.3298 52.2011H95.7382V54.6042H90.4607C90.2722 54.6042 90.1151 54.6658 89.9895 54.7891C89.8638 54.9123 89.801 55.0663 89.801 55.2512C89.801 55.4361 89.8638 55.5901 89.9895 55.7133C90.1151 55.8366 90.2722 55.8982 90.4607 55.8982H93.8534C94.7078 55.8982 95.3927 56.1508 95.9079 56.6561C96.4231 57.1614 96.6806 57.833 96.6806 58.6711V59.4105C96.6806 60.2485 96.4231 60.9201 95.9079 61.4254C95.3927 61.9307 94.7078 62.1833 93.8534 62.1833C91.6293 62.1833 89.2418 62.0601 86.691 61.8136V59.4105Z" fill="white"/>
<path d="M98.0015 59.2256H101.394V61.9985H98.0015V59.2256ZM98.3785 58.1165L98.0015 54.2345V49.0585H101.394V54.2345L101.017 58.1165H98.3785Z" fill="white"/>
</svg>
